<?xml version="1.0" encoding="iso-8859-1"?>
<!-- Generator: Adobe Illustrator 19.0.0, SVG Export Plug-In . SVG Version: 6.00 Build 0)  -->
<svg version="1.1" id="Layer_1" xmlns="http://www.w3.org/2000/svg" xmlns:xlink="http://www.w3.org/1999/xlink" x="0px" y="0px"
	 viewBox="0 0 511.999 511.999" style="enable-background:new 0 0 511.999 511.999;" xml:space="preserve">
<path style="fill:#FEE187;" d="M417.106,46.24c-10.459-10.459-21.582-19.838-33.23-28.156
	c73.207,102.433,63.846,245.706-28.12,337.671s-235.237,101.327-337.671,28.12c8.318,11.647,17.697,22.772,28.156,33.23
	c102.41,102.41,268.456,102.41,370.865,0S519.516,148.65,417.106,46.24z"/>
<g>
	<path style="fill:#FFC61B;" d="M231.675,511.999c-74.878,0-145.274-29.158-198.222-82.103
		c-10.974-10.974-21.097-22.922-30.085-35.507c-5.138-7.194-4.322-17.051,1.932-23.302c6.254-6.25,16.111-7.062,23.302-1.923
		c41.476,29.641,90.491,45.306,141.746,45.304c65.211-0.004,126.516-25.396,172.62-71.5c84.774-84.774,95.79-216.986,26.193-314.366
		c-5.142-7.194-4.328-17.049,1.923-23.302c6.249-6.252,16.107-7.07,23.3-1.933c12.584,8.987,24.531,19.107,35.511,30.087
		c52.946,52.946,82.103,123.342,82.103,198.222s-29.154,145.271-82.101,198.216S306.553,511.999,231.675,511.999z M111.935,444.576
		c36.139,20.395,77.106,31.25,119.739,31.25c65.219,0,126.531-25.396,172.643-71.511c79.079-79.079,92.472-199.345,40.172-292.372
		c5.561,26.181,7.408,53.235,5.297,80.306c-5.18,66.477-34.032,129.084-81.241,176.295
		c-52.937,52.937-123.322,82.091-198.195,82.094C150.51,450.638,130.961,448.593,111.935,444.576z"/>
	<path style="fill:#FFC61B;" d="M94.638,303.439c-1.016,0-2.044-0.087-3.078-0.264c-9.844-1.689-16.456-11.039-14.769-20.883
		l11.629-67.801l-49.26-48.017c-4.93-4.805-6.704-11.993-4.577-18.54c2.127-6.547,7.788-11.32,14.601-12.311l68.076-9.891
		l30.445-61.686c3.047-6.173,9.334-10.081,16.217-10.081s13.172,3.908,16.217,10.081l30.445,61.688l68.078,9.891
		c6.813,0.991,12.472,5.764,14.599,12.311s0.353,13.734-4.576,18.54l-49.262,48.017l11.629,67.801
		c1.165,6.786-1.624,13.642-7.194,17.688c-5.572,4.046-12.955,4.577-19.046,1.378l-69.306-36.435
		c-8.842-4.648-12.24-15.583-7.592-24.425c4.648-8.842,15.583-12.239,24.423-7.592l36.869,19.384l-7.041-41.054
		c-1.007-5.867,0.939-11.853,5.201-16.009l29.829-29.074l-41.221-5.99c-5.89-0.857-10.983-4.558-13.617-9.895l-18.436-37.354
		l-18.436,37.354c-2.635,5.337-7.726,9.037-13.617,9.895l-41.221,5.988l29.829,29.074c4.263,4.156,6.209,10.141,5.201,16.009
		l-13.235,77.173C110.931,297.218,103.285,303.439,94.638,303.439z"/>
</g>
<g>
</g>
<g>
</g>
<g>
</g>
<g>
</g>
<g>
</g>
<g>
</g>
<g>
</g>
<g>
</g>
<g>
</g>
<g>
</g>
<g>
</g>
<g>
</g>
<g>
</g>
<g>
</g>
<g>
</g>
</svg>
